<?xml version="1.0" encoding="UTF-8"?>
<svg id="_РЎР»РѕР№_1" data-name="РЎР»РѕР№ 1" xmlns="http://www.w3.org/2000/svg" viewBox="0 0 185.02 94.69">
  <defs>
    <style>
      .cls-1 {
        fill: #c2504f;
        stroke: #8d352f;
        stroke-miterlimit: 10;
        stroke-width: 2px;
      }
    </style>
  </defs>
  <path class="cls-1" d="m184.02,83.86s-.02.05-.04.06c-9.26,4.22-21.15,8.23-35.24,9.42-46.58,3.95-70.69-26.75-114.75-20.62-9.28,1.29-20.48,4.36-32.85,11.23-.05.03-.1,0-.1-.06-.01-23.97-.03-47.94-.04-71.91,0-.02.01-.05.03-.06C7.09,8.39,16.36,3.97,28.24,1.98c13.6-2.28,24.48-.33,39.65,3.25,47.46,11.21,53.19,18.72,73.35,18.5,9.96-.11,24.68-2.12,42.65-11.8.05-.02.1,0,.1.06.01,23.96.02,47.92.03,71.87Z"/>
</svg>